<svg width="17" height="21" viewBox="0 0 17 21" fill="none" xmlns="http://www.w3.org/2000/svg">
<path fill-rule="evenodd" clip-rule="evenodd" d="M3.09645 3.06971C4.22626 1.61311 5.98036 0.510254 8.38548 0.510254C10.7902 0.510254 12.5443 1.61315 13.6741 3.06967C14.7827 4.49865 15.2987 6.27235 15.2987 7.71634C15.2987 8.12453 15.2863 8.42844 15.2769 8.65639C15.275 8.70299 15.2732 8.74642 15.2717 8.78692C15.2626 9.0312 15.2652 9.13483 15.2813 9.23413C15.3197 9.4721 15.4424 9.7739 15.9896 10.9799C15.9963 10.9946 16.0026 11.0095 16.0084 11.0246C16.4173 12.0768 16.3282 13.0576 15.8348 13.8899C15.3676 14.6779 14.5892 15.2483 13.7668 15.6586C12.1223 16.479 9.95963 16.8288 8.38548 16.8288C6.81092 16.8288 4.64806 16.479 3.00352 15.6586C2.18113 15.2483 1.40268 14.6779 0.935615 13.8898C0.442301 13.0574 0.353465 12.0766 0.762599 11.0244C0.768433 11.0094 0.77468 10.9945 0.781332 10.9799C1.32855 9.7739 1.45124 9.4721 1.48969 9.23413C1.50573 9.13483 1.50838 9.0312 1.49924 8.78692C1.49773 8.74643 1.49595 8.703 1.49404 8.6564C1.4847 8.42845 1.47226 8.12454 1.47226 7.71634C1.47226 6.27244 1.98803 4.49874 3.09645 3.06971ZM4.48096 4.1436C3.62296 5.24978 3.22443 6.64108 3.22443 7.71634C3.22443 8.08582 3.23528 8.35182 3.24452 8.57852C3.24653 8.62778 3.24846 8.67519 3.25019 8.7214C3.25966 8.97454 3.26542 9.22897 3.21943 9.5136C3.13568 10.032 2.88319 10.5883 2.40883 11.6336L2.3876 11.6804C2.17023 12.2536 2.2445 12.6616 2.44297 12.9965C2.67009 13.3797 3.11756 13.7574 3.78569 14.0907C5.12222 14.7574 6.99887 15.0766 8.38548 15.0766C9.77161 15.0766 11.648 14.7575 12.9846 14.0907C13.6527 13.7574 14.1003 13.3797 14.3276 12.9964C14.5261 12.6614 14.6005 12.2534 14.3833 11.6802L14.3621 11.6336C13.8878 10.5883 13.6353 10.032 13.5515 9.5136C13.5055 9.22896 13.5113 8.97454 13.5208 8.7214C13.5225 8.67519 13.5244 8.62779 13.5265 8.57853C13.5357 8.35183 13.5465 8.08583 13.5465 7.71634C13.5465 6.64117 13.1478 5.24987 12.2897 4.14364C11.4529 3.06495 10.1884 2.26243 8.38548 2.26243C6.58205 2.26243 5.31758 3.06499 4.48096 4.1436Z" fill="black"/>
<path fill-rule="evenodd" clip-rule="evenodd" d="M5.60915 17.8149C5.97001 17.4925 6.52383 17.5238 6.84616 17.8846C7.73459 18.8793 9.04127 18.8709 9.92486 17.8839C10.2476 17.5234 10.8015 17.4928 11.1619 17.8155C11.5224 18.1383 11.553 18.6921 11.2303 19.0526C9.65711 20.8099 7.13126 20.834 5.53939 19.0519C5.21707 18.691 5.2483 18.1372 5.60915 17.8149Z" fill="black"/>
</svg>
